<svg width="46" height="46" xmlns="http://www.w3.org/2000/svg" xmlns:xlink="http://www.w3.org/1999/xlink"><defs><circle id="a" cx="24" cy="23" r="22"/><ellipse id="b" cx="22.5" cy="22" rx="22.5" ry="22"/><filter x="-5.6%" y="-5.7%" width="111.1%" height="111.4%" filterUnits="objectBoundingBox" id="c"><feOffset dy="-5" in="SourceAlpha" result="shadowOffsetInner1"/><feComposite in="shadowOffsetInner1" in2="SourceAlpha" operator="arithmetic" k2="-1" k3="1" result="shadowInnerInner1"/><feColorMatrix values="0 0 0 0 0.925490196 0 0 0 0 0.925490196 0 0 0 0 0.925490196 0 0 0 1 0" in="shadowInnerInner1"/></filter><circle id="e" cx="23" cy="21" r="20"/><filter x="-140%" y="-140%" width="380%" height="380%" filterUnits="objectBoundingBox" id="d"><feOffset dy="112" in="SourceAlpha" result="shadowOffsetInner1"/><feComposite in="shadowOffsetInner1" in2="SourceAlpha" operator="arithmetic" k2="-1" k3="1" result="shadowInnerInner1"/><feColorMatrix values="0 0 0 0 0.925490196 0 0 0 0 0.925490196 0 0 0 0 0.925490196 0 0 0 1 0" in="shadowInnerInner1"/></filter><circle id="f" cx="23" cy="22" r="14"/><filter x="-3.6%" y="-3.6%" width="107.1%" height="107.1%" filterUnits="objectBoundingBox" id="g"><feGaussianBlur stdDeviation=".5" in="SourceAlpha" result="shadowBlurInner1"/><feOffset dy="1" in="shadowBlurInner1" result="shadowOffsetInner1"/><feComposite in="shadowOffsetInner1" in2="SourceAlpha" operator="arithmetic" k2="-1" k3="1" result="shadowInnerInner1"/><feColorMatrix values="0 0 0 0 0 0 0 0 0 0 0 0 0 0 0 0 0 0 0.169157609 0" in="shadowInnerInner1"/></filter><path id="i" d="M24.5 25.087l1.5-1.47V13h-6v5.444l1.5 1.47-1.5 1.48V32h6v-5.444z"/><filter x="-8.3%" y="-2.6%" width="116.7%" height="110.5%" filterUnits="objectBoundingBox" id="h"><feOffset dy="1" in="SourceAlpha" result="shadowOffsetOuter1"/><feColorMatrix values="0 0 0 0 1 0 0 0 0 1 0 0 0 0 1 0 0 0 1 0" in="shadowOffsetOuter1"/></filter><filter x="-25%" y="-7.9%" width="150%" height="121.1%" filterUnits="objectBoundingBox" id="j"><feGaussianBlur stdDeviation="1" in="SourceAlpha" result="shadowBlurInner1"/><feOffset dy="1" in="shadowBlurInner1" result="shadowOffsetInner1"/><feComposite in="shadowOffsetInner1" in2="SourceAlpha" operator="arithmetic" k2="-1" k3="1" result="shadowInnerInner1"/><feColorMatrix values="0 0 0 0 0 0 0 0 0 0 0 0 0 0 0 0 0 0 0.681244339 0" in="shadowInnerInner1"/></filter><path d="M23 40c-9.94 0-18-8.06-18-18S13.06 4 23 4s18 8.06 18 18-8.06 18-18 18zm0-4c7.732 0 14-6.268 14-14S30.732 8 23 8 9 14.268 9 22s6.268 14 14 14z" id="k"/></defs><g fill="none" fill-rule="evenodd"><g transform="translate(-1)"><use fill="#FFF" xlink:href="#a"/><circle stroke-opacity=".2" stroke="#000" cx="24" cy="23" r="22.5"/></g><g transform="translate(0 1)"><g style="mix-blend-mode:multiply"><use fill="#FFF" xlink:href="#b"/><use fill="#000" filter="url(#c)" xlink:href="#b"/><use filter="url(#d)" xlink:href="#e" fill="#000"/></g><use fill="#FFF" xlink:href="#f"/><use fill="#000" filter="url(#g)" xlink:href="#f"/><circle stroke="#E5E5E5" stroke-width="1.164" fill="#F9F9F9" cx="23" cy="22" r="7"/><use fill="#000" filter="url(#h)" xlink:href="#i"/><use fill="#434A4F" xlink:href="#i"/><use fill="#000" filter="url(#j)" xlink:href="#i"/><use fill="#1A8CFF" xlink:href="#k"/><path stroke="#177EE6" d="M23 39.5c9.665 0 17.5-7.835 17.5-17.5S32.665 4.5 23 4.5 5.5 12.335 5.5 22 13.335 39.5 23 39.5zm0-3c-8.008 0-14.5-6.492-14.5-14.5S14.992 7.5 23 7.5 37.5 13.992 37.5 22 31.008 36.5 23 36.5z"/></g></g></svg>