<svg xmlns="http://www.w3.org/2000/svg" width="121" height="67" xmlns:xlink="http://www.w3.org/1999/xlink">
  <defs>
    <rect id="a" width="36" height="36" x="6" y="3" rx="6"/>
    <rect id="b" width="36" height="36" x="59" y="3" rx="6"/>
    <path id="c" d="M88.167 11.003l-.465.027c-.41.027-.766.165-1.067.44l-5.828 5.022-10.752-1.235c-.274-.027-.575.055-.766.247l-1.1 1.098c-.33.33-.22.85.16 1.043l7.63 3.925-3.62 4.2-2.9.137c-.17 0-.3.082-.39.22l-.246.33c-.246.328-.137.795.246.987l3.01 1.482 1.48 3.02c.19.384.66.494.987.247l.33-.247c.11-.082.19-.247.22-.384l.135-2.937 4.183-3.65 3.914 7.657c.19.412.74.494 1.04.165l1.1-1.097c.19-.195.3-.497.245-.77L84.5 20.14l5.032-5.82c.273-.3.41-.685.438-1.07l.027-.466c0-.988-.82-1.84-1.833-1.784z"/>
    <rect id="d" width="22" height="14.167" x="13" y="11" rx="2.1"/>
    <path id="e" d="M15 26h18v2H15z"/>
    <rect id="f" width="36" height="36" x="33" y="10" rx="6"/>
    <path id="g" d="M54 27v-.738c0-.688-.565-1.262-1.262-1.262h-2.476c-.688 0-1.262.565-1.262 1.262V27h-7.488C40.677 27 40 26.328 40 25.48v-6.96c0-.84.683-1.52 1.512-1.52h18.976c.835 0 1.512.672 1.512 1.52v6.96c0 .84-.683 1.52-1.512 1.52H54zm-5 1v.738c0 .688.565 1.262 1.262 1.262h2.476c.688 0 1.262-.565 1.262-1.262V28h7v4.486c0 .836-.677 1.514-1.503 1.514H42.503c-.83 0-1.503-.677-1.503-1.514V28h8zm1-1.364c0-.35.277-.636.636-.636h1.728c.35 0 .636.277.636.636v1.728c0 .35-.277.636-.636.636h-1.728c-.35 0-.636-.277-.636-.636v-1.728z"/>
    <path id="h" d="M20 52h75.998c.554 0 .894.43.76.965l-1.517 6.07c-.13.533-.68.965-1.24.965H20v-8z"/>
    <path id="i" d="M1.096 34.96C.86 33.88 1.56 33 2.676 33h91.99c1.106 0 1.814.874 1.577 1.96L91.88 55.027c-.116.538-.652.974-1.206.974H6.664c-.55 0-1.09-.44-1.206-.97L1.096 34.96z"/>
    <path id="j" d="M0 32.998C0 31.894.892 31 2.002 31h93.996c1.106 0 2.002.898 2.002 1.998v3.01c0 .548-.448.992-1.002.992H1.002C.45 37 0 36.55 0 36.01v-3.012z"/>
    <circle id="k" cx="19.5" cy="59.5" r="8.5"/>
    <circle id="l" cx="78.5" cy="59.5" r="8.5"/>
  </defs>
  <g fill="none" fill-rule="evenodd">
    <g transform="translate(0 -1)">
      <use fill="#FFF" xlink:href="#a"/>
      <rect width="34.5" height="34.5" x="6.75" y="3.75" stroke="#E6D2AC" stroke-width="1.5" rx="6"/>
    </g>
    <g transform="rotate(10 82.715 20.5)">
      <use fill="#FFF" xlink:href="#b"/>
      <rect width="34.5" height="34.5" x="59.75" y="3.75" stroke="#E6D2AC" stroke-width="1.5" rx="6"/>
    </g>
    <g fill-rule="nonzero" transform="translate(0 -1)">
      <use fill="#FEFBF6" fill-rule="evenodd" xlink:href="#c"/>
      <path stroke="#E6D2AC" d="M85.022 20.304l1.2 10.528c.087.435-.07.906-.382 1.22l-1.08 1.082c-.543.594-1.52.442-1.854-.274l-3.62-7.088-3.544 3.09-.135 2.797c-.052.26-.2.52-.41.68l-.327.24c-.582.44-1.405.23-1.735-.43l-1.402-2.86-2.86-1.41c-.657-.33-.858-1.15-.422-1.74l.22-.29c.18-.29.48-.464.79-.463l2.69-.125 3.06-3.55-7.06-3.63c-.69-.35-.85-1.28-.29-1.844l1.1-1.1c.298-.295.74-.43 1.18-.39l10.534 1.21 5.65-4.87c.38-.346.84-.53 1.375-.57l.464-.026h.003c1.286-.07 2.36.997 2.36 2.314l-.03.473c-.036.515-.227.997-.558 1.36l-4.89 5.656z"/>
    </g>
    <g transform="translate(0 -1)">
      <use fill="#FEFBF6" xlink:href="#d"/>
      <rect width="23" height="15.167" x="12.5" y="10.5" stroke="#E6D2AC" rx="2.1"/>
    </g>
    <g transform="translate(0 -1)">
      <use fill="#FEFBF6" xlink:href="#e"/>
      <path stroke="#E6D2AC" d="M14.5 25.5h19v3h-19v-3z"/>
    </g>
    <path fill="#E6D1AF" d="M25.018 18.862c.57.588.57 1.54 0 2.13-.57.587-1.496.587-2.066 0-.57-.59-.57-1.542 0-2.13.57-.588 1.496-.588 2.066 0zm.944-.452c-1.085-1.125-2.845-1.125-3.93 0l-.947-.98c1.608-1.667 4.216-1.667 5.824 0v.006l-.95.98-.01-.006zm1.83-1.882l-.007-.007c-2.092-2.16-5.484-2.16-7.576 0l-1.03-1.05c2.65-2.75 6.96-2.75 9.62 0v.01l-1.02 1.06z"/>
    <g transform="translate(0 -1)">
      <use fill="#FFF" xlink:href="#f"/>
      <rect width="34.5" height="34.5" x="33.75" y="10.75" stroke="#E6D2AC" stroke-width="1.5" rx="6"/>
    </g>
    <g stroke-linecap="round" stroke-linejoin="round" transform="translate(0 -1)">
      <use fill="#FEFBF6" xlink:href="#g"/>
      <path stroke="#E6D2AC" d="M53.5 27.5v-1.238c0-.416-.345-.762-.762-.762h-2.476c-.416 0-.762.345-.762.762V27.5h-7.988c-1.114 0-2.012-.898-2.012-2.02v-6.96c0-1.114.904-2.02 2.012-2.02h18.976c1.114 0 2.012.898 2.012 2.02v6.96c0 1.114-.904 2.02-2.012 2.02H53.5zm-4 0v1.238c0 .416.345.762.762.762h2.476c.416 0 .762-.345.762-.762V27.5h8v4.986c0 1.11-.9 2.014-2.003 2.014H42.503c-1.107 0-2.003-.902-2.003-2.014V27.5h9zm0-.864c0-.63.502-1.136 1.136-1.136h1.728c.63 0 1.136.502 1.136 1.136v1.728c0 .63-.502 1.136-1.136 1.136h-1.728c-.63 0-1.136-.502-1.136-1.136v-1.728z"/>
    </g>
    <path stroke="#737680" stroke-width="2" d="M114.93 12.864h2.97c.095 0 .235-.11.253-.192l1.326-5.856h-2.97c-.1 0-.24.11-.26.19l-1.33 5.858z"/>
    <g transform="translate(0 -1)">
      <use fill="#B8BDCC" xlink:href="#h"/>
      <path stroke="#737680" stroke-width="2" d="M21 53v6h72.996c.102 0 .253-.117.275-.208L95.72 53H21z"/>
    </g>
    <path stroke="#737680" stroke-width="2" d="M94.485 57.072L115.5 10.5" stroke-linecap="square"/>
    <g transform="translate(0 -1)">
      <use fill="#E64C2E" xlink:href="#i"/>
      <path stroke="#B33C24" stroke-width="2" d="M2.073 34.75l4.362 20.064c.017.076.152.186.23.186h84.01c.08 0 .212-.106.23-.186l4.36-20.065c.102-.47-.13-.75-.6-.75H2.675c-.474 0-.703.28-.602.75z"/>
    </g>
    <g transform="translate(0 -1)">
      <use fill="#E64C2E" xlink:href="#j"/>
      <path stroke="#B33C24" stroke-width="2" d="M97 36v.01V36zm0 0v-3.002c0-.55-.45-.998-1.002-.998H2.002C1.446 32 1 32.446 1 32.998v3.01C1 36 1.002 36 1.002 36H97z"/>
    </g>
    <g transform="translate(0 -1)">
      <use fill="#B8BDCC" xlink:href="#k"/>
      <circle cx="19.5" cy="59.5" r="5" stroke="#333" stroke-width="7"/>
      <circle cx="19.5" cy="59.5" r="5.5" stroke="#B8BDCC" stroke-width="6"/>
      <circle cx="19.5" cy="59.5" r="7" stroke="#333" stroke-width="3"/>
    </g>
    <g transform="translate(0 -1)">
      <use fill="#B8BDCC" xlink:href="#l"/>
      <circle cx="78.5" cy="59.5" r="5" stroke="#333" stroke-width="7"/>
      <circle cx="78.5" cy="59.5" r="5.5" stroke="#B8BDCC" stroke-width="6"/>
      <circle cx="78.5" cy="59.5" r="7" stroke="#333" stroke-width="3"/>
    </g>
    <path fill="#FFF" d="M25.136 48.136l-.192-5.496-2.604 5.496h-1.812L20 40.132h1.872l.12 5.784 2.796-5.784h1.332l.24 5.784 2.676-5.784h1.956l-4.044 8.004h-1.812zm4.97 0l1.765-8.004h5.67l-.33 1.464h-3.95l-.37 1.74h3.87l-.33 1.464h-3.88l-.41 1.86h3.95l-.31 1.476h-5.66zm7 0l1.764-8.004h1.704l-1.428 6.504h3.372l-.324 1.5h-5.088zm5.733-3.444c0-2.832 2.17-4.692 4.65-4.692 1.95 0 3.08 1.056 3.55 2.268l-1.65.552c-.31-.84-1.07-1.308-1.99-1.308-1.51 0-2.8 1.32-2.8 3.072 0 1.248.87 2.184 2.25 2.184.683 0 1.43-.36 1.883-.924l1.307.888c-.91 1.176-2.24 1.548-3.285 1.548-2.208 0-3.936-1.404-3.936-3.588zm8.07 0c0-2.616 2.01-4.692 4.65-4.692 2.21 0 3.92 1.392 3.92 3.576 0 2.616-2.01 4.704-4.65 4.704-2.22 0-3.94-1.392-3.94-3.588zm6.8-.996c0-1.344-.98-2.184-2.26-2.184-1.55 0-2.77 1.356-2.77 3.072 0 1.356.97 2.184 2.25 2.184 1.53 0 2.77-1.356 2.77-3.072zm8.55 4.44l1.28-5.856L64 48.136h-.744l-.97-5.856L61 48.136h-1.7l1.767-8.004h2.33l.816 5.088 3.07-5.088h2.46l-1.764 8.004h-1.71zm3 0l1.76-8.004h5.67l-.34 1.464h-3.94l-.378 1.74H75.9l-.32 1.464H71.7l-.4 1.86h3.95l-.31 1.476h-5.67z"/>
  </g>
</svg>
